<mxfile host="app.diagrams.net" modified="2020-12-16T12:05:10.967Z" agent="5.0 (Windows NT 6.3; Win64; x64) AppleWebKit/537.36 (KHTML, like Gecko) Chrome/87.0.4280.88 Safari/537.36" etag="Lt5YoPX75RiH7w5XuqG1" version="14.0.3" type="github">
  <diagram id="9vNp-hGSC7TSPK8dciln" name="Page-1">
    <mxGraphModel dx="868" dy="450" grid="1" gridSize="10" guides="1" tooltips="1" connect="1" arrows="1" fold="1" page="1" pageScale="1" pageWidth="827" pageHeight="1169" math="0" shadow="0">
      <root>
        <mxCell id="0" />
        <mxCell id="1" parent="0" />
        <mxCell id="f_OGAi7bQq5l3FAs032B-8" style="edgeStyle=orthogonalEdgeStyle;rounded=0;orthogonalLoop=1;jettySize=auto;html=1;exitX=0.5;exitY=1;exitDx=0;exitDy=0;entryX=1;entryY=0.5;entryDx=0;entryDy=0;" parent="1" source="qaYCNagNQvjwPavFpGOO-3" target="qaYCNagNQvjwPavFpGOO-64" edge="1">
          <mxGeometry relative="1" as="geometry" />
        </mxCell>
        <mxCell id="f_OGAi7bQq5l3FAs032B-9" style="edgeStyle=orthogonalEdgeStyle;rounded=0;orthogonalLoop=1;jettySize=auto;html=1;exitX=0.5;exitY=1;exitDx=0;exitDy=0;entryX=0;entryY=0.5;entryDx=0;entryDy=0;" parent="1" source="qaYCNagNQvjwPavFpGOO-3" target="qaYCNagNQvjwPavFpGOO-65" edge="1">
          <mxGeometry relative="1" as="geometry" />
        </mxCell>
        <mxCell id="qaYCNagNQvjwPavFpGOO-3" value="B777-300" style="rounded=1;whiteSpace=wrap;html=1;fillColor=#ffe6cc;strokeColor=#d79b00;shadow=1;" parent="1" vertex="1">
          <mxGeometry x="280" y="100" width="120" height="30" as="geometry" />
        </mxCell>
        <mxCell id="JNq5p8RZP5Eg0zuTn8ZH-40" style="edgeStyle=orthogonalEdgeStyle;rounded=0;orthogonalLoop=1;jettySize=auto;html=1;exitX=0.5;exitY=1;exitDx=0;exitDy=0;entryX=1;entryY=0.5;entryDx=0;entryDy=0;" edge="1" parent="1" source="qaYCNagNQvjwPavFpGOO-5" target="JNq5p8RZP5Eg0zuTn8ZH-4">
          <mxGeometry relative="1" as="geometry" />
        </mxCell>
        <mxCell id="JNq5p8RZP5Eg0zuTn8ZH-41" style="edgeStyle=orthogonalEdgeStyle;rounded=0;orthogonalLoop=1;jettySize=auto;html=1;exitX=0.5;exitY=1;exitDx=0;exitDy=0;entryX=0;entryY=0.5;entryDx=0;entryDy=0;" edge="1" parent="1" source="qaYCNagNQvjwPavFpGOO-5" target="JNq5p8RZP5Eg0zuTn8ZH-6">
          <mxGeometry relative="1" as="geometry" />
        </mxCell>
        <mxCell id="qaYCNagNQvjwPavFpGOO-5" value="A380-800" style="rounded=1;whiteSpace=wrap;html=1;fillColor=#ffe6cc;strokeColor=#d79b00;shadow=1;" parent="1" vertex="1">
          <mxGeometry x="1100" y="100" width="120" height="30" as="geometry" />
        </mxCell>
        <mxCell id="qaYCNagNQvjwPavFpGOO-30" style="edgeStyle=orthogonalEdgeStyle;rounded=0;orthogonalLoop=1;jettySize=auto;html=1;exitX=0.5;exitY=1;exitDx=0;exitDy=0;" parent="1" source="qaYCNagNQvjwPavFpGOO-6" target="qaYCNagNQvjwPavFpGOO-5" edge="1">
          <mxGeometry relative="1" as="geometry" />
        </mxCell>
        <mxCell id="qaYCNagNQvjwPavFpGOO-31" style="edgeStyle=orthogonalEdgeStyle;rounded=0;orthogonalLoop=1;jettySize=auto;html=1;exitX=0.5;exitY=1;exitDx=0;exitDy=0;" parent="1" source="qaYCNagNQvjwPavFpGOO-6" target="qaYCNagNQvjwPavFpGOO-3" edge="1">
          <mxGeometry relative="1" as="geometry" />
        </mxCell>
        <mxCell id="qaYCNagNQvjwPavFpGOO-58" style="edgeStyle=orthogonalEdgeStyle;rounded=0;orthogonalLoop=1;jettySize=auto;html=1;exitX=0.5;exitY=1;exitDx=0;exitDy=0;shadow=0;fontFamily=Verdana;fontSize=20;" parent="1" source="qaYCNagNQvjwPavFpGOO-6" target="qaYCNagNQvjwPavFpGOO-4" edge="1">
          <mxGeometry relative="1" as="geometry" />
        </mxCell>
        <mxCell id="qaYCNagNQvjwPavFpGOO-6" value="&lt;span style=&quot;font-size: 20px;&quot;&gt;Aircraft type&lt;/span&gt;" style="rounded=1;whiteSpace=wrap;html=1;strokeWidth=1;perimeterSpacing=0;glass=0;shadow=1;sketch=0;fontFamily=Verdana;fontSize=20;fillColor=#fff2cc;strokeColor=#d6b656;" parent="1" vertex="1">
          <mxGeometry x="567.5" y="30" width="445" height="30" as="geometry" />
        </mxCell>
        <mxCell id="f_OGAi7bQq5l3FAs032B-7" value="" style="group" parent="1" vertex="1" connectable="0">
          <mxGeometry x="1180" y="200" width="120" height="120" as="geometry" />
        </mxCell>
        <mxCell id="qaYCNagNQvjwPavFpGOO-36" value="Passenger" style="rounded=1;whiteSpace=wrap;html=1;fillColor=#d5e8d4;strokeColor=#82b366;shadow=1;" parent="f_OGAi7bQq5l3FAs032B-7" vertex="1">
          <mxGeometry width="120" height="30" as="geometry" />
        </mxCell>
        <mxCell id="qaYCNagNQvjwPavFpGOO-80" value="ULR" style="rounded=1;whiteSpace=wrap;html=1;fillColor=#e1d5e7;strokeColor=#9673a6;shadow=1;" parent="f_OGAi7bQq5l3FAs032B-7" vertex="1">
          <mxGeometry x="20" y="90" width="100" height="30" as="geometry" />
        </mxCell>
        <mxCell id="qaYCNagNQvjwPavFpGOO-81" value="non ULR" style="rounded=1;whiteSpace=wrap;html=1;fillColor=#e1d5e7;strokeColor=#9673a6;shadow=1;" parent="f_OGAi7bQq5l3FAs032B-7" vertex="1">
          <mxGeometry x="20" y="50" width="100" height="30" as="geometry" />
        </mxCell>
        <mxCell id="qaYCNagNQvjwPavFpGOO-83" style="edgeStyle=orthogonalEdgeStyle;rounded=0;orthogonalLoop=1;jettySize=auto;html=1;exitX=0;exitY=1;exitDx=0;exitDy=0;entryX=0;entryY=0.5;entryDx=0;entryDy=0;shadow=0;fontFamily=Verdana;fontSize=20;" parent="f_OGAi7bQq5l3FAs032B-7" source="qaYCNagNQvjwPavFpGOO-36" target="qaYCNagNQvjwPavFpGOO-80" edge="1">
          <mxGeometry relative="1" as="geometry" />
        </mxCell>
        <mxCell id="qaYCNagNQvjwPavFpGOO-82" style="edgeStyle=orthogonalEdgeStyle;rounded=0;orthogonalLoop=1;jettySize=auto;html=1;exitX=0;exitY=1;exitDx=0;exitDy=0;entryX=0;entryY=0.5;entryDx=0;entryDy=0;shadow=0;fontFamily=Verdana;fontSize=20;" parent="f_OGAi7bQq5l3FAs032B-7" source="qaYCNagNQvjwPavFpGOO-36" target="qaYCNagNQvjwPavFpGOO-81" edge="1">
          <mxGeometry relative="1" as="geometry" />
        </mxCell>
        <mxCell id="f_OGAi7bQq5l3FAs032B-20" value="" style="group" parent="1" vertex="1" connectable="0">
          <mxGeometry x="730" y="100" width="120" height="130" as="geometry" />
        </mxCell>
        <mxCell id="qaYCNagNQvjwPavFpGOO-4" value="B777-200" style="rounded=1;whiteSpace=wrap;html=1;fillColor=#ffe6cc;strokeColor=#d79b00;shadow=1;" parent="f_OGAi7bQq5l3FAs032B-20" vertex="1">
          <mxGeometry width="120" height="30" as="geometry" />
        </mxCell>
        <mxCell id="qaYCNagNQvjwPavFpGOO-16" value="Passenger" style="rounded=1;whiteSpace=wrap;html=1;fillColor=#d5e8d4;strokeColor=#82b366;shadow=1;" parent="f_OGAi7bQq5l3FAs032B-20" vertex="1">
          <mxGeometry y="100" width="120" height="30" as="geometry" />
        </mxCell>
        <mxCell id="qaYCNagNQvjwPavFpGOO-17" value="2 class" style="rounded=1;whiteSpace=wrap;html=1;fillColor=#f8cecc;strokeColor=#b85450;shadow=1;" parent="f_OGAi7bQq5l3FAs032B-20" vertex="1">
          <mxGeometry x="5" y="50" width="110" height="30" as="geometry" />
        </mxCell>
        <mxCell id="f_OGAi7bQq5l3FAs032B-12" style="edgeStyle=orthogonalEdgeStyle;rounded=0;orthogonalLoop=1;jettySize=auto;html=1;exitX=0.5;exitY=1;exitDx=0;exitDy=0;entryX=0.5;entryY=0;entryDx=0;entryDy=0;" parent="f_OGAi7bQq5l3FAs032B-20" source="qaYCNagNQvjwPavFpGOO-4" target="qaYCNagNQvjwPavFpGOO-17" edge="1">
          <mxGeometry relative="1" as="geometry" />
        </mxCell>
        <mxCell id="f_OGAi7bQq5l3FAs032B-13" style="edgeStyle=orthogonalEdgeStyle;rounded=0;orthogonalLoop=1;jettySize=auto;html=1;exitX=0.5;exitY=1;exitDx=0;exitDy=0;entryX=0.5;entryY=0;entryDx=0;entryDy=0;" parent="f_OGAi7bQq5l3FAs032B-20" source="qaYCNagNQvjwPavFpGOO-17" target="qaYCNagNQvjwPavFpGOO-16" edge="1">
          <mxGeometry relative="1" as="geometry" />
        </mxCell>
        <mxCell id="JNq5p8RZP5Eg0zuTn8ZH-1" value="" style="group" vertex="1" connectable="0" parent="1">
          <mxGeometry x="30" y="150" width="726" height="290" as="geometry" />
        </mxCell>
        <mxCell id="qaYCNagNQvjwPavFpGOO-64" value="2 class" style="rounded=1;whiteSpace=wrap;html=1;fillColor=#f8cecc;strokeColor=#b85450;shadow=1;" parent="JNq5p8RZP5Eg0zuTn8ZH-1" vertex="1">
          <mxGeometry x="90" width="110" height="30" as="geometry" />
        </mxCell>
        <mxCell id="f_OGAi7bQq5l3FAs032B-19" value="" style="group" parent="JNq5p8RZP5Eg0zuTn8ZH-1" vertex="1" connectable="0">
          <mxGeometry x="310" width="416" height="290" as="geometry" />
        </mxCell>
        <mxCell id="qaYCNagNQvjwPavFpGOO-65" value="3 class" style="rounded=1;whiteSpace=wrap;html=1;fillColor=#f8cecc;strokeColor=#b85450;shadow=1;" parent="f_OGAi7bQq5l3FAs032B-19" vertex="1">
          <mxGeometry x="86" width="110" height="30" as="geometry" />
        </mxCell>
        <mxCell id="f_OGAi7bQq5l3FAs032B-1" value="" style="group" parent="f_OGAi7bQq5l3FAs032B-19" vertex="1" connectable="0">
          <mxGeometry x="106" y="50" width="310" height="240" as="geometry" />
        </mxCell>
        <mxCell id="qaYCNagNQvjwPavFpGOO-11" value="Cargo" style="rounded=1;whiteSpace=wrap;html=1;fillColor=#dae8fc;strokeColor=#6c8ebf;shadow=1;" parent="f_OGAi7bQq5l3FAs032B-1" vertex="1">
          <mxGeometry x="60" width="120" height="30" as="geometry" />
        </mxCell>
        <mxCell id="qaYCNagNQvjwPavFpGOO-13" value="Modified Cabin" style="rounded=1;whiteSpace=wrap;html=1;fillColor=#dae8fc;strokeColor=#6c8ebf;shadow=1;" parent="f_OGAi7bQq5l3FAs032B-1" vertex="1">
          <mxGeometry x="170" y="70" width="120" height="30" as="geometry" />
        </mxCell>
        <mxCell id="qaYCNagNQvjwPavFpGOO-14" value="Passenger cabin" style="rounded=1;whiteSpace=wrap;html=1;fillColor=#dae8fc;strokeColor=#6c8ebf;shadow=1;" parent="f_OGAi7bQq5l3FAs032B-1" vertex="1">
          <mxGeometry y="70" width="120" height="30" as="geometry" />
        </mxCell>
        <mxCell id="qaYCNagNQvjwPavFpGOO-49" value="non ULR, ETOPS" style="rounded=1;whiteSpace=wrap;html=1;fillColor=#e1d5e7;strokeColor=#9673a6;shadow=1;" parent="f_OGAi7bQq5l3FAs032B-1" vertex="1">
          <mxGeometry x="190" y="120" width="120" height="30" as="geometry" />
        </mxCell>
        <mxCell id="qaYCNagNQvjwPavFpGOO-50" value="ULR" style="rounded=1;whiteSpace=wrap;html=1;fillColor=#e1d5e7;strokeColor=#9673a6;shadow=1;" parent="f_OGAi7bQq5l3FAs032B-1" vertex="1">
          <mxGeometry x="190" y="160" width="120" height="30" as="geometry" />
        </mxCell>
        <mxCell id="qaYCNagNQvjwPavFpGOO-51" value="non ULR &lt;br&gt;less than 5 hours" style="rounded=1;whiteSpace=wrap;html=1;fillColor=#e1d5e7;strokeColor=#9673a6;shadow=1;" parent="f_OGAi7bQq5l3FAs032B-1" vertex="1">
          <mxGeometry x="20" y="120" width="130" height="40" as="geometry" />
        </mxCell>
        <mxCell id="qaYCNagNQvjwPavFpGOO-52" value="ETOPS | over 5 hours" style="rounded=1;whiteSpace=wrap;html=1;fillColor=#e1d5e7;strokeColor=#9673a6;shadow=1;" parent="f_OGAi7bQq5l3FAs032B-1" vertex="1">
          <mxGeometry x="20" y="170" width="130" height="30" as="geometry" />
        </mxCell>
        <mxCell id="qaYCNagNQvjwPavFpGOO-53" value="ULR" style="rounded=1;whiteSpace=wrap;html=1;fillColor=#e1d5e7;strokeColor=#9673a6;shadow=1;" parent="f_OGAi7bQq5l3FAs032B-1" vertex="1">
          <mxGeometry x="20" y="210" width="130" height="30" as="geometry" />
        </mxCell>
        <mxCell id="qaYCNagNQvjwPavFpGOO-69" style="edgeStyle=orthogonalEdgeStyle;rounded=0;orthogonalLoop=1;jettySize=auto;html=1;exitX=0.5;exitY=1;exitDx=0;exitDy=0;shadow=0;fontFamily=Verdana;fontSize=20;" parent="f_OGAi7bQq5l3FAs032B-1" source="qaYCNagNQvjwPavFpGOO-11" target="qaYCNagNQvjwPavFpGOO-13" edge="1">
          <mxGeometry relative="1" as="geometry" />
        </mxCell>
        <mxCell id="qaYCNagNQvjwPavFpGOO-68" style="edgeStyle=orthogonalEdgeStyle;rounded=0;orthogonalLoop=1;jettySize=auto;html=1;exitX=0.5;exitY=1;exitDx=0;exitDy=0;entryX=0.5;entryY=0;entryDx=0;entryDy=0;shadow=0;fontFamily=Verdana;fontSize=20;" parent="f_OGAi7bQq5l3FAs032B-1" source="qaYCNagNQvjwPavFpGOO-11" target="qaYCNagNQvjwPavFpGOO-14" edge="1">
          <mxGeometry relative="1" as="geometry" />
        </mxCell>
        <mxCell id="qaYCNagNQvjwPavFpGOO-73" style="edgeStyle=orthogonalEdgeStyle;rounded=0;orthogonalLoop=1;jettySize=auto;html=1;exitX=0;exitY=1;exitDx=0;exitDy=0;entryX=0;entryY=0.5;entryDx=0;entryDy=0;shadow=0;fontFamily=Verdana;fontSize=20;" parent="f_OGAi7bQq5l3FAs032B-1" source="qaYCNagNQvjwPavFpGOO-13" target="qaYCNagNQvjwPavFpGOO-49" edge="1">
          <mxGeometry relative="1" as="geometry" />
        </mxCell>
        <mxCell id="qaYCNagNQvjwPavFpGOO-74" style="edgeStyle=orthogonalEdgeStyle;rounded=0;orthogonalLoop=1;jettySize=auto;html=1;exitX=0;exitY=1;exitDx=0;exitDy=0;entryX=0;entryY=0.5;entryDx=0;entryDy=0;shadow=0;fontFamily=Verdana;fontSize=20;" parent="f_OGAi7bQq5l3FAs032B-1" source="qaYCNagNQvjwPavFpGOO-13" target="qaYCNagNQvjwPavFpGOO-50" edge="1">
          <mxGeometry relative="1" as="geometry" />
        </mxCell>
        <mxCell id="qaYCNagNQvjwPavFpGOO-70" style="edgeStyle=orthogonalEdgeStyle;rounded=0;orthogonalLoop=1;jettySize=auto;html=1;exitX=0;exitY=1;exitDx=0;exitDy=0;entryX=0;entryY=0.5;entryDx=0;entryDy=0;shadow=0;fontFamily=Verdana;fontSize=20;" parent="f_OGAi7bQq5l3FAs032B-1" source="qaYCNagNQvjwPavFpGOO-14" target="qaYCNagNQvjwPavFpGOO-51" edge="1">
          <mxGeometry relative="1" as="geometry" />
        </mxCell>
        <mxCell id="qaYCNagNQvjwPavFpGOO-71" style="edgeStyle=orthogonalEdgeStyle;rounded=0;orthogonalLoop=1;jettySize=auto;html=1;exitX=0;exitY=1;exitDx=0;exitDy=0;entryX=0;entryY=0.5;entryDx=0;entryDy=0;shadow=0;fontFamily=Verdana;fontSize=20;" parent="f_OGAi7bQq5l3FAs032B-1" source="qaYCNagNQvjwPavFpGOO-14" target="qaYCNagNQvjwPavFpGOO-52" edge="1">
          <mxGeometry relative="1" as="geometry" />
        </mxCell>
        <mxCell id="qaYCNagNQvjwPavFpGOO-72" style="edgeStyle=orthogonalEdgeStyle;rounded=0;orthogonalLoop=1;jettySize=auto;html=1;exitX=0;exitY=1;exitDx=0;exitDy=0;entryX=0;entryY=0.5;entryDx=0;entryDy=0;shadow=0;fontFamily=Verdana;fontSize=20;" parent="f_OGAi7bQq5l3FAs032B-1" source="qaYCNagNQvjwPavFpGOO-14" target="qaYCNagNQvjwPavFpGOO-53" edge="1">
          <mxGeometry relative="1" as="geometry" />
        </mxCell>
        <mxCell id="f_OGAi7bQq5l3FAs032B-16" value="Passenger" style="rounded=1;whiteSpace=wrap;html=1;fillColor=#d5e8d4;strokeColor=#82b366;shadow=1;" parent="f_OGAi7bQq5l3FAs032B-19" vertex="1">
          <mxGeometry y="50" width="120" height="30" as="geometry" />
        </mxCell>
        <mxCell id="f_OGAi7bQq5l3FAs032B-18" style="edgeStyle=orthogonalEdgeStyle;rounded=0;orthogonalLoop=1;jettySize=auto;html=1;exitX=0.5;exitY=1;exitDx=0;exitDy=0;entryX=0;entryY=0.5;entryDx=0;entryDy=0;" parent="f_OGAi7bQq5l3FAs032B-19" source="qaYCNagNQvjwPavFpGOO-65" target="qaYCNagNQvjwPavFpGOO-11" edge="1">
          <mxGeometry relative="1" as="geometry" />
        </mxCell>
        <mxCell id="f_OGAi7bQq5l3FAs032B-17" style="edgeStyle=orthogonalEdgeStyle;rounded=0;orthogonalLoop=1;jettySize=auto;html=1;exitX=0.5;exitY=1;exitDx=0;exitDy=0;entryX=1;entryY=0.5;entryDx=0;entryDy=0;" parent="f_OGAi7bQq5l3FAs032B-19" source="qaYCNagNQvjwPavFpGOO-65" target="f_OGAi7bQq5l3FAs032B-16" edge="1">
          <mxGeometry relative="1" as="geometry" />
        </mxCell>
        <mxCell id="f_OGAi7bQq5l3FAs032B-21" value="Passenger" style="rounded=1;whiteSpace=wrap;html=1;fillColor=#d5e8d4;strokeColor=#82b366;shadow=1;" parent="JNq5p8RZP5Eg0zuTn8ZH-1" vertex="1">
          <mxGeometry y="50" width="120" height="30" as="geometry" />
        </mxCell>
        <mxCell id="f_OGAi7bQq5l3FAs032B-23" value="" style="group" parent="JNq5p8RZP5Eg0zuTn8ZH-1" vertex="1" connectable="0">
          <mxGeometry x="110" y="50" width="310" height="240" as="geometry" />
        </mxCell>
        <mxCell id="f_OGAi7bQq5l3FAs032B-24" value="Cargo" style="rounded=1;whiteSpace=wrap;html=1;fillColor=#dae8fc;strokeColor=#6c8ebf;shadow=1;" parent="f_OGAi7bQq5l3FAs032B-23" vertex="1">
          <mxGeometry x="60" width="120" height="30" as="geometry" />
        </mxCell>
        <mxCell id="f_OGAi7bQq5l3FAs032B-26" value="Passenger cabin" style="rounded=1;whiteSpace=wrap;html=1;fillColor=#dae8fc;strokeColor=#6c8ebf;shadow=1;" parent="f_OGAi7bQq5l3FAs032B-23" vertex="1">
          <mxGeometry x="60" y="50" width="120" height="30" as="geometry" />
        </mxCell>
        <mxCell id="f_OGAi7bQq5l3FAs032B-29" value="non ULR &lt;br&gt;less than 5 hours" style="rounded=1;whiteSpace=wrap;html=1;fillColor=#e1d5e7;strokeColor=#9673a6;shadow=1;" parent="f_OGAi7bQq5l3FAs032B-23" vertex="1">
          <mxGeometry x="80" y="100" width="130" height="40" as="geometry" />
        </mxCell>
        <mxCell id="f_OGAi7bQq5l3FAs032B-30" value="ETOPS | over 5 hours" style="rounded=1;whiteSpace=wrap;html=1;fillColor=#e1d5e7;strokeColor=#9673a6;shadow=1;" parent="f_OGAi7bQq5l3FAs032B-23" vertex="1">
          <mxGeometry x="80" y="150" width="130" height="30" as="geometry" />
        </mxCell>
        <mxCell id="f_OGAi7bQq5l3FAs032B-31" value="ULR" style="rounded=1;whiteSpace=wrap;html=1;fillColor=#e1d5e7;strokeColor=#9673a6;shadow=1;" parent="f_OGAi7bQq5l3FAs032B-23" vertex="1">
          <mxGeometry x="80" y="190" width="130" height="30" as="geometry" />
        </mxCell>
        <mxCell id="f_OGAi7bQq5l3FAs032B-33" style="edgeStyle=orthogonalEdgeStyle;rounded=0;orthogonalLoop=1;jettySize=auto;html=1;exitX=0.5;exitY=1;exitDx=0;exitDy=0;entryX=0.5;entryY=0;entryDx=0;entryDy=0;shadow=0;fontFamily=Verdana;fontSize=20;" parent="f_OGAi7bQq5l3FAs032B-23" source="f_OGAi7bQq5l3FAs032B-24" target="f_OGAi7bQq5l3FAs032B-26" edge="1">
          <mxGeometry relative="1" as="geometry" />
        </mxCell>
        <mxCell id="f_OGAi7bQq5l3FAs032B-36" style="edgeStyle=orthogonalEdgeStyle;rounded=0;orthogonalLoop=1;jettySize=auto;html=1;exitX=0;exitY=1;exitDx=0;exitDy=0;entryX=0;entryY=0.5;entryDx=0;entryDy=0;shadow=0;fontFamily=Verdana;fontSize=20;" parent="f_OGAi7bQq5l3FAs032B-23" source="f_OGAi7bQq5l3FAs032B-26" target="f_OGAi7bQq5l3FAs032B-29" edge="1">
          <mxGeometry relative="1" as="geometry" />
        </mxCell>
        <mxCell id="f_OGAi7bQq5l3FAs032B-37" style="edgeStyle=orthogonalEdgeStyle;rounded=0;orthogonalLoop=1;jettySize=auto;html=1;exitX=0;exitY=1;exitDx=0;exitDy=0;entryX=0;entryY=0.5;entryDx=0;entryDy=0;shadow=0;fontFamily=Verdana;fontSize=20;" parent="f_OGAi7bQq5l3FAs032B-23" source="f_OGAi7bQq5l3FAs032B-26" target="f_OGAi7bQq5l3FAs032B-30" edge="1">
          <mxGeometry relative="1" as="geometry" />
        </mxCell>
        <mxCell id="f_OGAi7bQq5l3FAs032B-38" style="edgeStyle=orthogonalEdgeStyle;rounded=0;orthogonalLoop=1;jettySize=auto;html=1;exitX=0;exitY=1;exitDx=0;exitDy=0;entryX=0;entryY=0.5;entryDx=0;entryDy=0;shadow=0;fontFamily=Verdana;fontSize=20;" parent="f_OGAi7bQq5l3FAs032B-23" source="f_OGAi7bQq5l3FAs032B-26" target="f_OGAi7bQq5l3FAs032B-31" edge="1">
          <mxGeometry relative="1" as="geometry" />
        </mxCell>
        <mxCell id="f_OGAi7bQq5l3FAs032B-22" style="edgeStyle=orthogonalEdgeStyle;rounded=0;orthogonalLoop=1;jettySize=auto;html=1;exitX=0.5;exitY=1;exitDx=0;exitDy=0;entryX=1;entryY=0.5;entryDx=0;entryDy=0;" parent="JNq5p8RZP5Eg0zuTn8ZH-1" source="qaYCNagNQvjwPavFpGOO-64" target="f_OGAi7bQq5l3FAs032B-21" edge="1">
          <mxGeometry relative="1" as="geometry" />
        </mxCell>
        <mxCell id="f_OGAi7bQq5l3FAs032B-39" style="edgeStyle=orthogonalEdgeStyle;rounded=0;orthogonalLoop=1;jettySize=auto;html=1;exitX=0.5;exitY=1;exitDx=0;exitDy=0;entryX=0;entryY=0.5;entryDx=0;entryDy=0;" parent="JNq5p8RZP5Eg0zuTn8ZH-1" source="qaYCNagNQvjwPavFpGOO-64" target="f_OGAi7bQq5l3FAs032B-24" edge="1">
          <mxGeometry relative="1" as="geometry" />
        </mxCell>
        <mxCell id="JNq5p8RZP5Eg0zuTn8ZH-4" value="2 class" style="rounded=1;whiteSpace=wrap;html=1;fillColor=#f8cecc;strokeColor=#b85450;shadow=1;" vertex="1" parent="1">
          <mxGeometry x="960" y="150" width="110" height="30" as="geometry" />
        </mxCell>
        <mxCell id="JNq5p8RZP5Eg0zuTn8ZH-26" value="Passenger" style="rounded=1;whiteSpace=wrap;html=1;fillColor=#d5e8d4;strokeColor=#82b366;shadow=1;" vertex="1" parent="1">
          <mxGeometry x="870" y="200" width="120" height="30" as="geometry" />
        </mxCell>
        <mxCell id="JNq5p8RZP5Eg0zuTn8ZH-37" style="edgeStyle=orthogonalEdgeStyle;rounded=0;orthogonalLoop=1;jettySize=auto;html=1;exitX=0.5;exitY=1;exitDx=0;exitDy=0;entryX=1;entryY=0.5;entryDx=0;entryDy=0;" edge="1" parent="1" source="JNq5p8RZP5Eg0zuTn8ZH-4" target="JNq5p8RZP5Eg0zuTn8ZH-26">
          <mxGeometry x="870" y="150" as="geometry" />
        </mxCell>
        <mxCell id="JNq5p8RZP5Eg0zuTn8ZH-38" style="edgeStyle=orthogonalEdgeStyle;rounded=0;orthogonalLoop=1;jettySize=auto;html=1;exitX=0.5;exitY=1;exitDx=0;exitDy=0;entryX=0;entryY=0.5;entryDx=0;entryDy=0;" edge="1" parent="1" source="JNq5p8RZP5Eg0zuTn8ZH-4" target="JNq5p8RZP5Eg0zuTn8ZH-28">
          <mxGeometry x="870" y="150" as="geometry" />
        </mxCell>
        <mxCell id="f_OGAi7bQq5l3FAs032B-5" value="" style="group" parent="1" vertex="1" connectable="0">
          <mxGeometry x="870" y="200" width="120" height="120" as="geometry" />
        </mxCell>
        <mxCell id="qaYCNagNQvjwPavFpGOO-19" value="Passenger" style="rounded=1;whiteSpace=wrap;html=1;fillColor=#d5e8d4;strokeColor=#82b366;shadow=1;" parent="f_OGAi7bQq5l3FAs032B-5" vertex="1">
          <mxGeometry width="120" height="30" as="geometry" />
        </mxCell>
        <mxCell id="qaYCNagNQvjwPavFpGOO-76" value="ULR" style="rounded=1;whiteSpace=wrap;html=1;fillColor=#e1d5e7;strokeColor=#9673a6;shadow=1;" parent="f_OGAi7bQq5l3FAs032B-5" vertex="1">
          <mxGeometry x="20" y="90" width="100" height="30" as="geometry" />
        </mxCell>
        <mxCell id="qaYCNagNQvjwPavFpGOO-77" value="non ULR" style="rounded=1;whiteSpace=wrap;html=1;fillColor=#e1d5e7;strokeColor=#9673a6;shadow=1;" parent="f_OGAi7bQq5l3FAs032B-5" vertex="1">
          <mxGeometry x="20" y="50" width="100" height="30" as="geometry" />
        </mxCell>
        <mxCell id="qaYCNagNQvjwPavFpGOO-79" style="edgeStyle=orthogonalEdgeStyle;rounded=0;orthogonalLoop=1;jettySize=auto;html=1;exitX=0;exitY=1;exitDx=0;exitDy=0;entryX=0;entryY=0.5;entryDx=0;entryDy=0;shadow=0;fontFamily=Verdana;fontSize=20;" parent="f_OGAi7bQq5l3FAs032B-5" source="qaYCNagNQvjwPavFpGOO-19" target="qaYCNagNQvjwPavFpGOO-76" edge="1">
          <mxGeometry relative="1" as="geometry" />
        </mxCell>
        <mxCell id="qaYCNagNQvjwPavFpGOO-78" style="edgeStyle=orthogonalEdgeStyle;rounded=0;orthogonalLoop=1;jettySize=auto;html=1;exitX=0;exitY=1;exitDx=0;exitDy=0;entryX=0;entryY=0.5;entryDx=0;entryDy=0;shadow=0;fontFamily=Verdana;fontSize=20;" parent="f_OGAi7bQq5l3FAs032B-5" source="qaYCNagNQvjwPavFpGOO-19" target="qaYCNagNQvjwPavFpGOO-77" edge="1">
          <mxGeometry relative="1" as="geometry" />
        </mxCell>
        <mxCell id="JNq5p8RZP5Eg0zuTn8ZH-28" value="Cargo" style="rounded=1;whiteSpace=wrap;html=1;fillColor=#dae8fc;strokeColor=#6c8ebf;shadow=1;" vertex="1" parent="1">
          <mxGeometry x="1040" y="200" width="120" height="30" as="geometry" />
        </mxCell>
        <mxCell id="JNq5p8RZP5Eg0zuTn8ZH-29" value="Cargo hold" style="rounded=1;whiteSpace=wrap;html=1;fillColor=#dae8fc;strokeColor=#6c8ebf;shadow=1;" vertex="1" parent="1">
          <mxGeometry x="1040" y="250" width="120" height="30" as="geometry" />
        </mxCell>
        <mxCell id="JNq5p8RZP5Eg0zuTn8ZH-33" style="edgeStyle=orthogonalEdgeStyle;rounded=0;orthogonalLoop=1;jettySize=auto;html=1;exitX=0.5;exitY=1;exitDx=0;exitDy=0;entryX=0.5;entryY=0;entryDx=0;entryDy=0;shadow=0;fontFamily=Verdana;fontSize=20;" edge="1" parent="1" source="JNq5p8RZP5Eg0zuTn8ZH-28" target="JNq5p8RZP5Eg0zuTn8ZH-29">
          <mxGeometry x="980" y="200" as="geometry" />
        </mxCell>
        <mxCell id="JNq5p8RZP5Eg0zuTn8ZH-6" value="3 class" style="rounded=1;whiteSpace=wrap;html=1;fillColor=#f8cecc;strokeColor=#b85450;shadow=1;" vertex="1" parent="1">
          <mxGeometry x="1266" y="150" width="110" height="30" as="geometry" />
        </mxCell>
        <mxCell id="JNq5p8RZP5Eg0zuTn8ZH-7" value="" style="group" vertex="1" connectable="0" parent="1">
          <mxGeometry x="1286" y="200" width="310" height="240" as="geometry" />
        </mxCell>
        <mxCell id="JNq5p8RZP5Eg0zuTn8ZH-8" value="Cargo" style="rounded=1;whiteSpace=wrap;html=1;fillColor=#dae8fc;strokeColor=#6c8ebf;shadow=1;" vertex="1" parent="JNq5p8RZP5Eg0zuTn8ZH-7">
          <mxGeometry x="60" width="120" height="30" as="geometry" />
        </mxCell>
        <mxCell id="JNq5p8RZP5Eg0zuTn8ZH-23" value="Passenger" style="rounded=1;whiteSpace=wrap;html=1;fillColor=#d5e8d4;strokeColor=#82b366;shadow=1;" vertex="1" parent="1">
          <mxGeometry x="1180" y="200" width="120" height="30" as="geometry" />
        </mxCell>
        <mxCell id="JNq5p8RZP5Eg0zuTn8ZH-24" style="edgeStyle=orthogonalEdgeStyle;rounded=0;orthogonalLoop=1;jettySize=auto;html=1;exitX=0.5;exitY=1;exitDx=0;exitDy=0;entryX=0;entryY=0.5;entryDx=0;entryDy=0;" edge="1" parent="1" source="JNq5p8RZP5Eg0zuTn8ZH-6" target="JNq5p8RZP5Eg0zuTn8ZH-8">
          <mxGeometry x="1180" y="150" as="geometry" />
        </mxCell>
        <mxCell id="JNq5p8RZP5Eg0zuTn8ZH-25" style="edgeStyle=orthogonalEdgeStyle;rounded=0;orthogonalLoop=1;jettySize=auto;html=1;exitX=0.5;exitY=1;exitDx=0;exitDy=0;entryX=1;entryY=0.5;entryDx=0;entryDy=0;" edge="1" parent="1" source="JNq5p8RZP5Eg0zuTn8ZH-6" target="JNq5p8RZP5Eg0zuTn8ZH-23">
          <mxGeometry x="1180" y="150" as="geometry" />
        </mxCell>
        <mxCell id="JNq5p8RZP5Eg0zuTn8ZH-45" value="Cargo hold" style="rounded=1;whiteSpace=wrap;html=1;fillColor=#dae8fc;strokeColor=#6c8ebf;shadow=1;" vertex="1" parent="1">
          <mxGeometry x="1350" y="250" width="120" height="30" as="geometry" />
        </mxCell>
        <mxCell id="JNq5p8RZP5Eg0zuTn8ZH-46" style="edgeStyle=orthogonalEdgeStyle;rounded=0;orthogonalLoop=1;jettySize=auto;html=1;exitX=0.5;exitY=1;exitDx=0;exitDy=0;entryX=0.5;entryY=0;entryDx=0;entryDy=0;shadow=0;fontFamily=Verdana;fontSize=20;" edge="1" parent="1" target="JNq5p8RZP5Eg0zuTn8ZH-45">
          <mxGeometry x="1290" y="200" as="geometry">
            <mxPoint x="1410" y="230" as="sourcePoint" />
          </mxGeometry>
        </mxCell>
      </root>
    </mxGraphModel>
  </diagram>
</mxfile>
